<?xml version="1.0" encoding="UTF-8"?><svg id="Layer_1" xmlns="http://www.w3.org/2000/svg" viewBox="0 0 62.34 62.34"><defs><style>.cls-1{fill:#635ba7;}.cls-2{fill:#262626;}</style></defs><rect class="cls-1" x="2.13" y="2.13" width="58.21" height="58.21"/><path class="cls-2" d="m62.34,30.19l-.13-.26V0H0v62.21h62.21v-31.95l.13-.07Zm-4.13-8.07l-9.28-18.12h9.28v18.12ZM4,31.59L18.13,4h9.74L4,51.73v-20.15Zm54.21-.69v20.84L34.34,4h10.09l13.77,26.89ZM13.63,4L4,22.81V4h9.63ZM5.24,58.21l9.32-18.63v18.63H5.24Zm13.32,0v-26.63l10.55-21.1v47.73h-10.55Zm14.55,0V10.47l10.55,21.1v26.63h-10.55Zm14.55,0v-18.63l9.32,18.63h-9.32Z"/></svg>
